<?xml version="1.0" encoding="UTF-8" standalone="no"?>
<svg width="363px" height="203px" viewBox="0 0 363 203" version="1.1" xmlns="http://www.w3.org/2000/svg" xmlns:xlink="http://www.w3.org/1999/xlink">
    <!-- Generator: Sketch 47 (45396) - http://www.bohemiancoding.com/sketch -->
    <title>Artboard 3</title>
    <desc>Created with Sketch.</desc>
    <defs></defs>
    <g id="Page-1" stroke="none" stroke-width="1" fill="none" fill-rule="evenodd">
        <g id="Artboard-3">
            <path d="M132.052734,-15 L376.552734,-7.5 C385.890137,137.344148 381.29834,215.184642 362.777344,226.021484 C352.384805,232.102275 233.792357,229.100322 7,217.015625 L181.277344,106.757813 L132.052734,-15 Z" id="Triangle-3" stroke="#979797" fill="#4835E8"></path>
            <path d="M137.535156,-2.48102988 L186.626953,114.25 L39.7421875,-2.48102988 C13.201847,-5.13917368 3.81447719,-9.94943638 11.5800781,-16.911818 C19.3456791,-23.8741996 61.3307051,-19.0639369 137.535156,-2.48102988 Z" id="Triangle" fill="#0DFFE5"></path>
            <polygon id="Triangle-2" fill="#FF0058" points="-3.45703125 -37.1113281 181.5 110.117676 -3.45703125 226.558594"></polygon>
            <g id="bubbles" transform="translate(136.000000, 56.000000)">
                <g id="Group">
                    <circle id="Oval-4" fill="#F58ABC" cx="18" cy="63" r="18"></circle>
                    <circle id="Oval-4-Copy-2" fill="#F58ABC" cx="49" cy="44" r="17"></circle>
                    <ellipse id="Oval-4-Copy-3" fill="#F58ABC" cx="76" cy="60.5" rx="14" ry="14.5"></ellipse>
                    <ellipse id="Oval-4-Copy-4" fill="#FFC54E" cx="75" cy="35.5" rx="10" ry="10.5"></ellipse>
                    <ellipse id="Oval-4-Copy-14" fill="#F58ABC" cx="62" cy="80.5" rx="10" ry="10.5"></ellipse>
                    <ellipse id="Oval-4-Copy-15" fill="#F58ABC" cx="34" cy="81.5" rx="6" ry="6.5"></ellipse>
                    <ellipse id="Oval-4-Copy-5" fill="#F58ABC" cx="61" cy="14.5" rx="14" ry="14.5"></ellipse>
                    <circle id="Oval-4-Copy-16" fill="#F58ABC" cx="78.5" cy="81.5" r="6.5"></circle>
                    <circle id="Oval-4-Copy-11" fill="#F58ABC" cx="35.5" cy="24.5" r="6.5"></circle>
                    <circle id="Oval-4-Copy-12" fill="#F58ABC" cx="58" cy="63" r="3"></circle>
                    <circle id="Oval-4-Copy-12" fill="#F58ABC" cx="78" cy="20" r="3"></circle>
                    <circle id="Oval-4-Copy-6" fill="#F58ABC" cx="24" cy="22" r="5"></circle>
                    <circle id="Oval-4-Copy-10" fill="#F58ABC" cx="11" cy="41" r="5"></circle>
                    <circle id="Oval-4-Copy-9" fill="#F58ABC" cx="24" cy="36" r="9"></circle>
                    <circle id="Oval-4-Copy-13" fill="#F58ABC" cx="46" cy="70" r="9"></circle>
                    <circle id="Oval-4-Copy-7" fill="#F58ABC" cx="93" cy="29" r="9"></circle>
                    <ellipse id="Oval-4-Copy-8" fill="#F58ABC" cx="90.5" cy="44" rx="5.5" ry="6"></ellipse>
                </g>
            </g>
        </g>
    </g>
</svg>